<?xml version="1.0" standalone="no"?>
<!DOCTYPE svg PUBLIC "-//W3C//DTD SVG 20010904//EN"
 "http://www.w3.org/TR/2001/REC-SVG-20010904/DTD/svg10.dtd">
<svg version="1.0" xmlns="http://www.w3.org/2000/svg"
 width="512.000000pt" height="512.000000pt" viewBox="0 0 512.000000 512.000000"
 preserveAspectRatio="xMidYMid meet">
<metadata>
Created by potrace 1.16, written by Peter Selinger 2001-2019
</metadata>
<g transform="translate(0.000000,512.000000) scale(0.100000,-0.100000)"
fill="#000000" stroke="none">
<path d="M3463 4796 c33 -86 41 -251 17 -361 -18 -86 -90 -297 -158 -465 -33
-80 -236 -518 -452 -975 -216 -456 -427 -906 -470 -1000 -43 -93 -103 -223
-134 -289 l-56 -118 -42 6 c-22 4 -45 9 -51 13 -5 3 -6 32 -3 67 7 68 47 563
131 1621 30 385 68 789 83 898 l27 197 -812 0 -813 0 0 -1830 0 -1830 330 0
330 0 0 68 c0 289 235 539 524 559 284 19 525 -161 591 -442 30 -124 8 -275
-57 -398 -67 -125 -215 -237 -361 -273 -88 -21 -227 -15 -311 15 -72 26 -69
26 -55 -2 21 -38 119 -135 170 -168 112 -71 278 -102 403 -75 216 49 378 201
431 407 17 66 18 253 1 291 -8 17 35 18 828 18 l836 0 0 1830 0 1830 -333 0
-333 0 -10 69 c-20 127 -94 247 -198 323 -43 31 -61 36 -53 14z"/>
</g>
</svg>
